<mxfile host="app.diagrams.net" modified="2021-08-07T08:56:00.706Z" agent="5.0 (Windows NT 10.0; Win64; x64) AppleWebKit/537.36 (KHTML, like Gecko) Chrome/92.0.4515.131 Safari/537.36 Edg/92.0.902.67" etag="-jpCZXJH9_GytIKbPIlD" version="14.9.5" type="github">
  <diagram id="FSlrQvpvQA96mcGi1WL8" name="第 1 页">
    <mxGraphModel dx="731" dy="402" grid="1" gridSize="10" guides="1" tooltips="1" connect="1" arrows="1" fold="1" page="1" pageScale="1" pageWidth="827" pageHeight="1169" math="0" shadow="0">
      <root>
        <mxCell id="0" />
        <mxCell id="1" parent="0" />
        <mxCell id="TvhPPzDzShztiSGsOENh-3" value="" style="edgeStyle=orthogonalEdgeStyle;rounded=0;orthogonalLoop=1;jettySize=auto;html=1;fontSize=13;" edge="1" parent="1" source="TvhPPzDzShztiSGsOENh-1" target="TvhPPzDzShztiSGsOENh-2">
          <mxGeometry relative="1" as="geometry" />
        </mxCell>
        <mxCell id="TvhPPzDzShztiSGsOENh-1" value="weight layer" style="rounded=0;whiteSpace=wrap;html=1;fontSize=13;" vertex="1" parent="1">
          <mxGeometry x="270" y="180" width="90" height="40" as="geometry" />
        </mxCell>
        <mxCell id="TvhPPzDzShztiSGsOENh-15" style="edgeStyle=orthogonalEdgeStyle;rounded=0;orthogonalLoop=1;jettySize=auto;html=1;entryX=0.5;entryY=0;entryDx=0;entryDy=0;entryPerimeter=0;fontSize=13;" edge="1" parent="1" source="TvhPPzDzShztiSGsOENh-2" target="TvhPPzDzShztiSGsOENh-9">
          <mxGeometry relative="1" as="geometry" />
        </mxCell>
        <mxCell id="TvhPPzDzShztiSGsOENh-2" value="weight layer" style="rounded=0;whiteSpace=wrap;html=1;fontSize=13;" vertex="1" parent="1">
          <mxGeometry x="270" y="260" width="90" height="40" as="geometry" />
        </mxCell>
        <mxCell id="TvhPPzDzShztiSGsOENh-4" value="relu" style="text;html=1;align=center;verticalAlign=middle;resizable=0;points=[];autosize=1;strokeColor=none;fontSize=13;" vertex="1" parent="1">
          <mxGeometry x="320" y="230" width="40" height="20" as="geometry" />
        </mxCell>
        <mxCell id="TvhPPzDzShztiSGsOENh-6" style="edgeStyle=orthogonalEdgeStyle;rounded=0;orthogonalLoop=1;jettySize=auto;html=1;fontSize=13;" edge="1" parent="1" source="TvhPPzDzShztiSGsOENh-5" target="TvhPPzDzShztiSGsOENh-1">
          <mxGeometry relative="1" as="geometry" />
        </mxCell>
        <mxCell id="TvhPPzDzShztiSGsOENh-19" style="edgeStyle=orthogonalEdgeStyle;rounded=0;orthogonalLoop=1;jettySize=auto;html=1;entryX=1;entryY=0.5;entryDx=0;entryDy=0;entryPerimeter=0;fontSize=13;" edge="1" parent="1" source="TvhPPzDzShztiSGsOENh-5" target="TvhPPzDzShztiSGsOENh-9">
          <mxGeometry relative="1" as="geometry">
            <Array as="points">
              <mxPoint x="315" y="160" />
              <mxPoint x="420" y="160" />
              <mxPoint x="420" y="333" />
            </Array>
          </mxGeometry>
        </mxCell>
        <mxCell id="TvhPPzDzShztiSGsOENh-5" value="x" style="text;html=1;align=center;verticalAlign=middle;resizable=0;points=[];autosize=1;strokeColor=none;fontSize=13;" vertex="1" parent="1">
          <mxGeometry x="305" y="120" width="20" height="20" as="geometry" />
        </mxCell>
        <mxCell id="TvhPPzDzShztiSGsOENh-7" value="F(x)" style="text;html=1;align=center;verticalAlign=middle;resizable=0;points=[];autosize=1;strokeColor=none;fontSize=13;" vertex="1" parent="1">
          <mxGeometry x="240" y="230" width="40" height="20" as="geometry" />
        </mxCell>
        <mxCell id="TvhPPzDzShztiSGsOENh-16" style="edgeStyle=orthogonalEdgeStyle;rounded=0;orthogonalLoop=1;jettySize=auto;html=1;fontSize=13;" edge="1" parent="1" source="TvhPPzDzShztiSGsOENh-9">
          <mxGeometry relative="1" as="geometry">
            <mxPoint x="315" y="370" as="targetPoint" />
          </mxGeometry>
        </mxCell>
        <mxCell id="TvhPPzDzShztiSGsOENh-9" value="" style="verticalLabelPosition=bottom;verticalAlign=top;html=1;shape=mxgraph.flowchart.summing_function;fontSize=13;" vertex="1" parent="1">
          <mxGeometry x="302.5" y="320" width="25" height="25" as="geometry" />
        </mxCell>
        <mxCell id="TvhPPzDzShztiSGsOENh-12" value="F(x) + x" style="text;html=1;align=center;verticalAlign=middle;resizable=0;points=[];autosize=1;strokeColor=none;fontSize=13;" vertex="1" parent="1">
          <mxGeometry x="230" y="322.5" width="60" height="20" as="geometry" />
        </mxCell>
        <mxCell id="TvhPPzDzShztiSGsOENh-17" value="relu" style="text;html=1;align=center;verticalAlign=middle;resizable=0;points=[];autosize=1;strokeColor=none;fontSize=13;" vertex="1" parent="1">
          <mxGeometry x="320" y="345" width="40" height="20" as="geometry" />
        </mxCell>
        <mxCell id="TvhPPzDzShztiSGsOENh-20" value="x&lt;br style=&quot;font-size: 13px;&quot;&gt;identity" style="text;html=1;align=center;verticalAlign=middle;resizable=0;points=[];autosize=1;strokeColor=none;fontSize=13;" vertex="1" parent="1">
          <mxGeometry x="420" y="220" width="60" height="40" as="geometry" />
        </mxCell>
      </root>
    </mxGraphModel>
  </diagram>
</mxfile>
